<svg width="28" height="29" viewBox="0 0 28 29" fill="none" xmlns="http://www.w3.org/2000/svg">
<path d="M8.16699 21.5001V13.9167C8.16699 13.4526 7.98262 13.0075 7.65443 12.6793C7.32624 12.3511 6.88112 12.1667 6.41699 12.1667C5.95286 12.1667 5.50774 12.3511 5.17956 12.6793C4.85137 13.0075 4.66699 13.4526 4.66699 13.9167V19.1667C4.66699 19.7856 4.91282 20.3791 5.35041 20.8167C5.78799 21.2542 6.38149 21.5001 7.00033 21.5001H8.16699ZM8.16699 21.5001V16.8334H19.8337V21.5001M8.16699 21.5001H19.8337M19.8337 21.5001V13.9167C19.8337 13.4526 20.018 13.0075 20.3462 12.6793C20.6744 12.3511 21.1195 12.1667 21.5837 12.1667C22.0478 12.1667 22.4929 12.3511 22.8211 12.6793C23.1493 13.0075 23.3337 13.4526 23.3337 13.9167V19.1667C23.3337 19.7856 23.0878 20.3791 22.6502 20.8167C22.2127 21.2542 21.6192 21.5001 21.0003 21.5001H19.8337ZM8.16699 26.1667H19.8337M16.917 26.1667H11.0837V21.5001H16.917V26.1667Z" stroke="black" stroke-width="1.5" stroke-linecap="round" stroke-linejoin="round"/>
<path d="M21.5837 12.1667V9.83337C21.5837 6.53404 21.5837 4.88321 20.5582 3.85887C19.5338 2.83337 17.883 2.83337 14.5837 2.83337H13.417C10.1177 2.83337 8.46683 2.83337 7.44249 3.85887C6.41699 4.88321 6.41699 6.53404 6.41699 9.83337V12.1667" stroke="black" stroke-width="1.5" stroke-linecap="round" stroke-linejoin="round"/>
</svg>
