<svg width="28" height="29" viewBox="0 0 28 29" fill="none" xmlns="http://www.w3.org/2000/svg">
<path d="M25.6663 21.5H6.99967C6.38084 21.5 5.78734 21.2542 5.34976 20.8166C4.91217 20.379 4.66634 19.7855 4.66634 19.1667V8.66671C4.66634 8.04787 4.42051 7.45438 3.98292 7.01679C3.54534 6.57921 2.95185 6.33337 2.33301 6.33337" stroke="black" stroke-width="2" stroke-linecap="round" stroke-linejoin="round"/>
<path d="M19.8333 16.8334V5.16671C19.8333 4.54787 19.5875 3.95438 19.1499 3.51679C18.7123 3.07921 18.1188 2.83337 17.5 2.83337H16.3333C15.7145 2.83337 15.121 3.07921 14.6834 3.51679C14.2458 3.95438 14 4.54787 14 5.16671V16.8334" stroke="black" stroke-width="2" stroke-linecap="round" stroke-linejoin="round"/>
<path d="M23.333 7.5H10.4997C9.85534 7.5 9.33301 8.02233 9.33301 8.66667V15.6667C9.33301 16.311 9.85534 16.8333 10.4997 16.8333H23.333C23.9773 16.8333 24.4997 16.311 24.4997 15.6667V8.66667C24.4997 8.02233 23.9773 7.5 23.333 7.5Z" stroke="black" stroke-width="2" stroke-linecap="round" stroke-linejoin="round"/>
<path d="M20.9993 26.1667C22.288 26.1667 23.3327 25.122 23.3327 23.8333C23.3327 22.5447 22.288 21.5 20.9993 21.5C19.7107 21.5 18.666 22.5447 18.666 23.8333C18.666 25.122 19.7107 26.1667 20.9993 26.1667Z" stroke="black" stroke-width="2" stroke-linecap="round" stroke-linejoin="round"/>
<path d="M10.4993 26.1667C11.788 26.1667 12.8327 25.122 12.8327 23.8333C12.8327 22.5447 11.788 21.5 10.4993 21.5C9.21068 21.5 8.16602 22.5447 8.16602 23.8333C8.16602 25.122 9.21068 26.1667 10.4993 26.1667Z" stroke="black" stroke-width="2" stroke-linecap="round" stroke-linejoin="round"/>
</svg>
