<svg width="16" height="16" viewBox="0 0 16 16" fill="none" xmlns="http://www.w3.org/2000/svg">
<rect width="16" height="16" rx="8" fill="white"/>
<path d="M7.7102 9.24867L5.92553 7.464C5.90109 7.43956 5.88042 7.41089 5.86353 7.378C5.84709 7.34556 5.83887 7.31067 5.83887 7.27333C5.83887 7.19867 5.86331 7.13444 5.9122 7.08067C5.96198 7.02689 6.02731 7 6.1082 7H9.89287C9.97331 7 10.0382 7.02756 10.0875 7.08267C10.1369 7.13778 10.1615 7.20178 10.1615 7.27467C10.1615 7.29333 10.1326 7.35644 10.0749 7.464L8.2902 9.24867C8.24887 9.29 8.20442 9.32178 8.15687 9.344C8.10931 9.36622 8.05709 9.37733 8.0002 9.37733C7.94331 9.37733 7.89109 9.36622 7.84353 9.344C7.79598 9.32178 7.75153 9.29 7.7102 9.24867Z" fill="black"/>
</svg>
