<svg width="26" height="22" viewBox="0 0 26 22" fill="none" xmlns="http://www.w3.org/2000/svg">
<path d="M4.83366 21.5C4.5031 21.5 4.22621 21.388 4.00299 21.164C3.77977 20.94 3.66777 20.6631 3.66699 20.3333V19.1667C2.69477 19.1667 1.86838 18.8264 1.18783 18.1458C0.50727 17.4653 0.166992 16.6389 0.166992 15.6667V9.83333C0.166992 9.19167 0.395659 8.64256 0.852992 8.186C1.31033 7.72944 1.85944 7.50078 2.50033 7.5C3.14121 7.49922 3.69071 7.72789 4.14883 8.186C4.60694 8.64411 4.83521 9.19322 4.83366 9.83333V14.5H21.167V9.83333C21.167 9.19167 21.3957 8.64256 21.853 8.186C22.3103 7.72944 22.8594 7.50078 23.5003 7.5C24.1412 7.49922 24.6907 7.72789 25.1488 8.186C25.6069 8.64411 25.8352 9.19322 25.8337 9.83333V15.6667C25.8337 16.6389 25.4934 17.4653 24.8128 18.1458C24.1323 18.8264 23.3059 19.1667 22.3337 19.1667V20.3333C22.3337 20.6639 22.2217 20.9412 21.9977 21.1652C21.7737 21.3892 21.4968 21.5008 21.167 21.5C20.8372 21.4992 20.5603 21.3872 20.3363 21.164C20.1123 20.9408 20.0003 20.6639 20.0003 20.3333V19.1667H6.00033V20.3333C6.00033 20.6639 5.88833 20.9412 5.66433 21.1652C5.44033 21.3892 5.16344 21.5008 4.83366 21.5ZM7.16699 12.1667V9.83333C7.16699 8.76389 6.84149 7.80606 6.19049 6.95983C5.53949 6.11361 4.69833 5.51589 3.66699 5.16667V4C3.66699 3.02778 4.00727 2.20139 4.68783 1.52083C5.36838 0.840278 6.19477 0.5 7.16699 0.5H18.8337C19.8059 0.5 20.6323 0.840278 21.3128 1.52083C21.9934 2.20139 22.3337 3.02778 22.3337 4V5.16667C21.2837 5.43889 20.4378 6.00783 19.7962 6.8735C19.1545 7.73917 18.8337 8.72578 18.8337 9.83333V12.1667H7.16699Z" fill="#CFCFC4"/>
</svg>
