<svg width="37" height="32" viewBox="0 0 37 32" fill="none" xmlns="http://www.w3.org/2000/svg">
<path d="M33.625 0.875H3.375C2.64565 0.875 1.94618 1.16473 1.43046 1.68046C0.914731 2.19618 0.625 2.89565 0.625 3.625V28.375C0.625 29.1043 0.914731 29.8038 1.43046 30.3195C1.94618 30.8353 2.64565 31.125 3.375 31.125H33.625C34.3543 31.125 35.0538 30.8353 35.5695 30.3195C36.0853 29.8038 36.375 29.1043 36.375 28.375V3.625C36.375 2.89565 36.0853 2.19618 35.5695 1.68046C35.0538 1.16473 34.3543 0.875 33.625 0.875ZM33.625 3.625V6.375H3.375V3.625H33.625ZM33.625 28.375H3.375V9.125H33.625V28.375ZM26.75 13.25C26.75 15.438 25.8808 17.5365 24.3336 19.0836C22.7865 20.6308 20.688 21.5 18.5 21.5C16.312 21.5 14.2135 20.6308 12.6664 19.0836C11.1192 17.5365 10.25 15.438 10.25 13.25C10.25 12.8853 10.3949 12.5356 10.6527 12.2777C10.9106 12.0199 11.2603 11.875 11.625 11.875C11.9897 11.875 12.3394 12.0199 12.5973 12.2777C12.8551 12.5356 13 12.8853 13 13.25C13 14.7087 13.5795 16.1076 14.6109 17.1391C15.6424 18.1705 17.0413 18.75 18.5 18.75C19.9587 18.75 21.3576 18.1705 22.3891 17.1391C23.4205 16.1076 24 14.7087 24 13.25C24 12.8853 24.1449 12.5356 24.4027 12.2777C24.6606 12.0199 25.0103 11.875 25.375 11.875C25.7397 11.875 26.0894 12.0199 26.3473 12.2777C26.6051 12.5356 26.75 12.8853 26.75 13.25Z" fill="#1C3C95"/>
</svg>
